<?xml version="1.0" encoding="utf-8"?>
<!-- Generator: Adobe Illustrator 25.4.1, SVG Export Plug-In . SVG Version: 6.00 Build 0)  -->
<svg version="1.1" id="Layer_1" xmlns="http://www.w3.org/2000/svg" xmlns:xlink="http://www.w3.org/1999/xlink" x="0px" y="0px"
	 viewBox="0 0 16 16" style="enable-background:new 0 0 16 16;" xml:space="preserve">
<path d="M8-8C3.7-8,3.1-8,1.4-7.9c-1.7,0.1-2.9,0.3-3.9,0.7c-1.1,0.4-2,1-2.8,1.8c-0.8,0.8-1.4,1.8-1.8,2.8c-0.4,1-0.7,2.2-0.7,3.9
	C-8,3.1-8,3.7-8,8c0,4.3,0,4.9,0.1,6.6c0.1,1.7,0.3,2.9,0.7,3.9c0.4,1.1,1,1.9,1.8,2.8c0.9,0.9,1.8,1.4,2.8,1.8
	c1,0.4,2.2,0.7,3.9,0.7C3.1,24,3.7,24,8,24s4.9,0,6.6-0.1c1.7-0.1,2.9-0.3,3.9-0.7c1.1-0.4,2-1,2.8-1.8c0.9-0.9,1.4-1.8,1.8-2.8
	c0.4-1,0.7-2.2,0.7-3.9C24,12.9,24,12.3,24,8s0-4.9-0.1-6.6c-0.1-1.7-0.4-2.9-0.7-3.9c-0.4-1.1-1-2-1.8-2.8
	c-0.8-0.8-1.8-1.4-2.8-1.8c-1-0.4-2.2-0.7-3.9-0.7C12.9-8,12.3-8,8-8L8-8L8-8z M6.6-5.1H8c4.3,0,4.8,0,6.5,0.1
	c1.6,0.1,2.4,0.3,3,0.6c0.7,0.3,1.3,0.6,1.8,1.2s0.9,1.1,1.2,1.8C20.7-0.9,21,0,21,1.5c0.1,1.7,0.1,2.2,0.1,6.5s0,4.8-0.1,6.5
	c-0.1,1.6-0.3,2.4-0.5,3c-0.3,0.7-0.7,1.3-1.2,1.8c-0.6,0.6-1.1,0.9-1.8,1.2c-0.6,0.2-1.4,0.5-3,0.6c-1.7,0.1-2.2,0.1-6.5,0.1
	s-4.8,0-6.5-0.1c-1.6-0.1-2.4-0.3-3-0.6c-0.7-0.3-1.3-0.7-1.8-1.2c-0.5-0.5-0.9-1.1-1.2-1.8C-4.7,16.9-5,16-5,14.5
	c-0.1-1.7-0.1-2.2-0.1-6.5c0-4.3,0-4.8,0.1-6.5C-5,0-4.7-0.9-4.5-1.4c0.3-0.7,0.6-1.3,1.2-1.8s1.1-0.9,1.8-1.2C-0.9-4.7,0-5,1.5-5
	C3-5.1,3.6-5.1,6.6-5.1C6.6-5.1,6.6-5.1,6.6-5.1z M16.5-2.5c-1.1,0-1.9,0.9-1.9,1.9s0.9,1.9,1.9,1.9l0,0c1.1,0,1.9-0.9,1.9-1.9
	S17.6-2.5,16.5-2.5z M8-0.2C3.5-0.3-0.3,3.3-0.3,7.9c-0.1,4.5,3.6,8.3,8.1,8.3c0.1,0,0.2,0,0.3,0c4.5-0.1,8.2-3.8,8.1-8.3
	C16,3.4,12.4-0.1,8-0.2z M8,2.7c2.9,0,5.3,2.4,5.3,5.3S11,13.3,8,13.3c0,0,0,0,0,0c-2.9,0-5.3-2.4-5.3-5.3S5.1,2.7,8,2.7z"/>
</svg>
